<svg height="30" width="30" xmlns="http://www.w3.org/2000/svg" viewBox="0 0 392.727 392.727" xml:space="preserve"><path style="fill:#fff" d="M259.976 298.537V73.826c0-6.012-4.848-10.925-10.925-10.925H32.873c-6.012 0-10.925 4.848-10.925 10.925v285.996c0 6.012 4.848 10.925 10.925 10.925h154.828"/><path style="fill:#ffc10d" d="M227.2 84.752H54.659c-6.012 0-10.925 4.848-10.925 10.925v242.424c0 6.012 4.848 10.925 10.925 10.925h119.467c2.651 0 5.172-1.034 7.176-2.78v-43.119c0-6.012 4.848-10.925 10.925-10.925h43.119c1.745-2.004 2.78-4.461 2.78-7.176V95.677c-.065-6.077-4.914-10.925-10.926-10.925z"/><path style="fill:#fff" d="M203.152 313.988v41.374l41.373-41.374z"/><path style="fill:#194f82" d="M302.513 41.18c-6.012 0-10.925 4.848-10.925 10.925s4.848 10.925 10.925 10.925c6.012 0 10.925 4.848 10.925 10.925v285.996c0 6.012-4.848 10.925-10.925 10.925h-52.945c-6.012 0-10.925 4.848-10.925 10.925 0 6.012 4.848 10.925 10.925 10.925h52.945c18.036 0 32.711-14.675 32.711-32.711V73.826c.065-17.971-14.61-32.646-32.711-32.646zM359.919 41.18c-6.012 0-10.925 4.848-10.925 10.925s4.848 10.925 10.925 10.925c6.012 0 10.925 4.848 10.925 10.925v285.996c0 6.012-4.848 10.925-10.925 10.925-6.012 0-10.925 4.848-10.925 10.925 0 6.012 4.848 10.925 10.925 10.925 18.036 0 32.711-14.675 32.711-32.711V73.826c0-17.971-14.674-32.646-32.711-32.646z"/><path style="fill:#194f82" d="M281.697 303.127V73.826c0-18.036-14.675-32.711-32.711-32.711H124.8v-.129C124.8 18.424 106.44 0 83.814 0S42.828 18.36 42.828 40.986v.129h-9.956C14.771 41.115.096 55.79.096 73.826v285.996c0 18.101 14.675 32.776 32.711 32.776h159.354c2.844 0 5.624-1.164 7.758-3.168l78.61-78.61c2.004-2.068 3.168-4.848 3.168-7.693zM64.614 40.986c0-10.602 8.598-19.135 19.135-19.135s19.135 8.598 19.135 19.135v.129H64.55v-.129h.064zm138.473 314.376v-41.374h41.309l-41.309 41.374zm56.824-63.16h-67.749c-6.012 0-10.925 4.848-10.925 10.925v67.685H32.808c-6.012 0-10.925-4.848-10.925-10.925V73.826c0-6.012 4.848-10.925 10.925-10.925h70.141v50.683c0 4.848-4.008 8.857-8.857 8.857s-8.857-4.008-8.857-8.857V93.673c0-6.012-4.848-10.925-10.925-10.925s-10.925 4.848-10.925 10.925v19.911c0 16.937 13.77 30.707 30.707 30.707s30.707-13.77 30.707-30.707V62.901h124.186c6.012 0 10.925 4.848 10.925 10.925l.001 218.376z"/><path style="fill:#194f82" d="M212.137 173.059H69.786c-6.012 0-10.925 4.848-10.925 10.925s4.848 10.925 10.925 10.925h142.352c6.012 0 10.925-4.848 10.925-10.925s-4.913-10.925-10.926-10.925zM212.137 231.434H69.786c-6.012 0-10.925 4.848-10.925 10.925s4.848 10.925 10.925 10.925h142.352c6.012 0 10.925-4.848 10.925-10.925s-4.913-10.925-10.926-10.925zM135.079 289.745H69.786c-6.012 0-10.925 4.848-10.925 10.925s4.848 10.925 10.925 10.925h65.293c6.012 0 10.925-4.849 10.925-10.925s-4.913-10.925-10.925-10.925z"/></svg>